<?xml version="1.0" encoding="UTF-8"?>
<svg width="500px" height="500px" viewBox="0 0 500 500" version="1.1" xmlns="http://www.w3.org/2000/svg" xmlns:xlink="http://www.w3.org/1999/xlink">
    <!-- Generator: Sketch 45.1 (43504) - http://www.bohemiancoding.com/sketch -->
    <title>sign red on white</title>
    <desc>Created with Sketch.</desc>
    <defs></defs>
    <g id="logo" stroke="none" stroke-width="1" fill="none" fill-rule="evenodd">
        <g id="sign-red-on-white" fill="white">
            <path d="M381.984798,86.5871699 L300.569882,168.110189 L161.864368,168.110189 L124,246.773735 L205.37763,328.296754 L218.521096,341.454069 L228.103708,351.060403 L250.885716,373.880121 L361.533192,263.014795 L361.533192,213.058117 L374.713945,199.564394 L374.713945,158.410408 L381.984798,151.420584 L395.557058,137.814725 L395.557058,73 L381.984798,86.5871699 Z M214.519019,318.689029 L337.889073,195.867324 L361.134332,172.44343 L361.134332,198.699807 L352.326193,207.607223 L347.987577,212.005026 L346.4541,213.570346 L227.665775,331.8079 L214.519019,318.689029 Z M250.683146,354.756384 L237.467503,341.599146 L348.291447,231.20169 L348.385175,231.089555 L348.385175,257.404032 L250.683146,354.756384 Z M382.8079,132.384148 L348.742707,166.396288 L342.676303,172.437918 L332.484744,182.619183 L205.986216,308.859417 L192.845451,295.750571 L306.912517,181.910597 L382.8079,106.14781 L382.8079,132.384148 L382.8079,132.384148 Z" id="sign-red"></path>
        </g>
    </g>
</svg>
